<svg version="1.2" xmlns="http://www.w3.org/2000/svg" viewBox="0 0 256 256" width="24" height="24">
	<title>sun-svg</title>
	<style>
		.s0 { fill: #ffffff } 
	</style>
	<g id="Layer">
		<g id="Layer">
			<g id="Layer">
			</g>
			<path id="Layer" fill-rule="evenodd" class="s0" d="m131.6 21.9c1 1 1.5 2.3 1.5 3.7v30.7c0 1.9-0.9 3.6-2.5 4.5-1.6 0.9-3.6 0.9-5.2 0-1.6-0.9-2.5-2.6-2.5-4.5v-30.7c-0.1-2.8 2.2-5.1 5-5.2 1.4 0 2.7 0.5 3.7 1.5zm-72.2 30.3l21.5 21.5c1.4 1.3 1.9 3.2 1.4 5-0.4 1.8-1.8 3.2-3.6 3.6-1.8 0.5-3.7 0-5-1.4l-21.5-21.5c-1.5-1.4-2-3.6-1.2-5.6 0.8-1.9 2.7-3.2 4.7-3.2 1.4 0 2.8 0.6 3.7 1.6zm145.6 1.6c0.8 1.9 0.3 4.2-1.2 5.6l-21.5 21.5c-1.3 1.4-3.2 1.9-5 1.4-1.8-0.4-3.2-1.8-3.6-3.6-0.5-1.8 0-3.7 1.4-5l21.5-21.5c0.9-1 2.2-1.5 3.5-1.6 2.1 0 4 1.2 4.9 3.2zm-74.9 23.4c27.3 1.2 49.1 23.2 49.1 50.8 0 28.3-22.9 51.2-51.2 51.2-28.3 0-51.2-22.9-51.2-51.2 0-27.6 21.8-49.6 49.1-50.8q1-0.4 2.1-0.4 1.1 0 2.1 0.4zm-43.1 50.8c0 22.9 18.1 41 41 41 22.9 0 41-18.1 41-41 0-22.9-18.1-41-41-41-22.9 0-41 18.1-41 41zm-30.7-5.1c1.9 0 3.6 0.9 4.5 2.5 0.9 1.6 0.9 3.6 0 5.2-0.9 1.6-2.6 2.5-4.5 2.5h-30.7c-1.8 0-3.6-0.9-4.5-2.5-0.9-1.6-0.9-3.6 0-5.2 0.9-1.6 2.7-2.5 4.5-2.5zm174.1 0c1.8 0 3.5 0.9 4.5 2.5 0.9 1.6 0.9 3.6 0 5.2-1 1.6-2.7 2.5-4.5 2.5h-30.7c-1.9 0-3.6-0.9-4.5-2.5-1-1.6-1-3.6 0-5.2 0.9-1.6 2.6-2.5 4.5-2.5zm-148.4 53.7c0.9 2 0.4 4.2-1.1 5.7l-21.5 21.5c-1.3 1.3-3.2 1.9-5 1.4-1.8-0.4-3.2-1.9-3.7-3.6-0.4-1.8 0.1-3.7 1.5-5l21.5-21.5c0.9-1 2.1-1.5 3.5-1.6 2.1 0 4 1.2 4.8 3.1zm100.3-1.5l21.5 21.5c1.3 1.3 1.8 3.2 1.4 5-0.5 1.7-1.9 3.2-3.7 3.6-1.8 0.5-3.7-0.1-5-1.4l-21.5-21.5c-1.5-1.4-1.9-3.7-1.1-5.6 0.7-1.9 2.6-3.2 4.7-3.2 1.4 0 2.7 0.6 3.7 1.6zm-50.7 20.9c1 1 1.5 2.3 1.5 3.7v30.7c0 1.8-1 3.6-2.6 4.5-1.6 0.9-3.5 0.9-5.1 0-1.6-0.9-2.6-2.7-2.6-4.5v-30.7c0-2.8 2.3-5.2 5.1-5.2 1.4 0 2.7 0.5 3.7 1.5z"/>
		</g>
	</g>
</svg>