<?xml version="1.0" encoding="utf-8"?>
<!-- Generator: Adobe Illustrator 27.5.0, SVG Export Plug-In . SVG Version: 6.00 Build 0)  -->
<svg version="1.1" xmlns="http://www.w3.org/2000/svg" xmlns:xlink="http://www.w3.org/1999/xlink" x="0px" y="0px"
	 viewBox="0 0 750 500" style="enable-background:new 0 0 750 500;" xml:space="preserve">
<g id="BACKGROUND">
	<rect y="0" style="fill:#323139;" width="750" height="500"/>
</g>
<g id="OBJECTS">
	<g>
		<linearGradient id="SVGID_1_" gradientUnits="userSpaceOnUse" x1="375" y1="443.3782" x2="375" y2="379.6419">
			<stop  offset="0" style="stop-color:#01000A;stop-opacity:0"/>
			<stop  offset="1" style="stop-color:#01000A"/>
		</linearGradient>
		<path style="opacity:0.57;fill:url(#SVGID_1_);" d="M643.603,454.777H106.397c-3.789,0-6.861-3.072-6.861-6.861V98.523
			c0-3.79,3.072-6.862,6.861-6.862h537.207c3.789,0,6.862,3.072,6.862,6.862v349.393
			C650.465,451.705,647.393,454.777,643.603,454.777z"/>
		<path style="fill:#535259;" d="M646.792,420.449H103.208c-3.812,0-6.901-3.09-6.901-6.902V64.235c0-3.812,3.09-6.902,6.901-6.902
			h543.584c3.812,0,6.901,3.09,6.901,6.902v349.313C653.693,417.359,650.604,420.449,646.792,420.449z"/>
		<path style="fill:#FFCA58;" d="M653.582,78.863V63.567c0-3.443-2.791-6.233-6.233-6.233H102.652c-3.443,0-6.233,2.791-6.233,6.233
			v15.296H653.582z"/>
		<g style="opacity:0.52;">
			<path style="fill:#737278;" d="M338.916,180.634H170.608c-6.504,0-11.825-5.321-11.825-11.825l0,0
				c0-6.503,5.321-11.825,11.825-11.825h168.308c6.504,0,11.825,5.321,11.825,11.825l0,0
				C350.74,175.313,345.419,180.634,338.916,180.634z"/>
			<path style="fill:#737278;" d="M575.88,162.077H439.406c-5.273,0-9.588-4.315-9.588-9.588l0,0c0-5.273,4.315-9.588,9.588-9.588
				H575.88c5.273,0,9.588,4.315,9.588,9.588l0,0C585.468,157.762,581.153,162.077,575.88,162.077z"/>
			<path style="fill:#737278;" d="M541.466,137.525h-84.154c-3.252,0-5.912-2.66-5.912-5.912l0,0c0-3.252,2.66-5.912,5.912-5.912
				h84.154c3.252,0,5.912,2.661,5.912,5.912l0,0C547.378,134.865,544.718,137.525,541.466,137.525z"/>
			<path style="fill:#737278;" d="M537.815,225.594h-84.154c-3.252,0-5.912-2.661-5.912-5.912l0,0c0-3.252,2.66-5.912,5.912-5.912
				h84.154c3.252,0,5.912,2.661,5.912,5.912l0,0C543.728,222.933,541.067,225.594,537.815,225.594z"/>
			<path style="fill:#737278;" d="M528.46,271.434h-84.154c-3.252,0-5.912-2.661-5.912-5.912l0,0c0-3.252,2.661-5.912,5.912-5.912
				h84.154c3.252,0,5.912,2.66,5.912,5.912l0,0C534.372,268.774,531.712,271.434,528.46,271.434z"/>
			<path style="fill:#737278;" d="M285.758,148.813h-84.154c-3.252,0-5.912-2.661-5.912-5.912l0,0c0-3.252,2.661-5.912,5.912-5.912
				h84.154c3.252,0,5.912,2.661,5.912,5.912l0,0C291.67,146.152,289.009,148.813,285.758,148.813z"/>
			<path style="fill:#737278;" d="M325.436,215.089H196.69c-5.419,0-9.852-4.433-9.852-9.852l0,0c0-5.419,4.434-9.852,9.852-9.852
				h128.746c5.419,0,9.852,4.434,9.852,9.852l0,0C335.288,210.656,330.855,215.089,325.436,215.089z"/>
			<path style="fill:#737278;" d="M291.76,231.228H163.014c-5.419,0-9.852-4.434-9.852-9.852l0,0c0-5.419,4.434-9.852,9.852-9.852
				H291.76c5.419,0,9.852,4.434,9.852,9.852l0,0C301.613,226.795,297.179,231.228,291.76,231.228z"/>
			<path style="fill:#737278;" d="M545.65,250.658H416.904c-5.419,0-9.852-4.434-9.852-9.852l0,0c0-5.419,4.434-9.852,9.852-9.852
				H545.65c5.419,0,9.852,4.434,9.852,9.852l0,0C555.502,246.225,551.069,250.658,545.65,250.658z"/>
			<path style="fill:#737278;" d="M548.048,208.835H419.302c-5.419,0-9.852-4.434-9.852-9.852l0,0c0-5.419,4.434-9.852,9.852-9.852
				h128.746c5.419,0,9.852,4.434,9.852,9.852l0,0C557.901,204.402,553.467,208.835,548.048,208.835z"/>
			<path style="fill:#737278;" d="M323.069,268.384H194.323c-5.419,0-9.852-4.434-9.852-9.852l0,0c0-5.419,4.434-9.852,9.852-9.852
				h128.746c5.419,0,9.852,4.434,9.852,9.852l0,0C332.921,263.951,328.487,268.384,323.069,268.384z"/>
		</g>
		<g>
			<g>
				
					<line style="fill:none;stroke:#E0E0E2;stroke-width:2.0008;stroke-linecap:round;stroke-linejoin:round;stroke-miterlimit:10;" x1="251.294" y1="186.878" x2="269.903" y2="186.878"/>
				
					<line style="fill:none;stroke:#E0E0E2;stroke-width:2.0008;stroke-linecap:round;stroke-linejoin:round;stroke-miterlimit:10;" x1="254.578" y1="192.283" x2="273.187" y2="192.283"/>
				
					<line style="fill:none;stroke:#E0E0E2;stroke-width:2.0008;stroke-linecap:round;stroke-linejoin:round;stroke-miterlimit:10;" x1="323.898" y1="169.273" x2="342.507" y2="169.273"/>
				
					<line style="fill:none;stroke:#E0E0E2;stroke-width:2.0008;stroke-linecap:round;stroke-linejoin:round;stroke-miterlimit:10;" x1="320.41" y1="175.917" x2="339.019" y2="175.917"/>
				
					<line style="fill:none;stroke:#E0E0E2;stroke-width:2.0008;stroke-linecap:round;stroke-linejoin:round;stroke-miterlimit:10;" x1="346.897" y1="239.693" x2="365.506" y2="239.693"/>
				
					<line style="fill:none;stroke:#E0E0E2;stroke-width:2.0008;stroke-linecap:round;stroke-linejoin:round;stroke-miterlimit:10;" x1="381.355" y1="236.039" x2="399.964" y2="236.039"/>
				
					<line style="fill:none;stroke:#E0E0E2;stroke-width:2.0008;stroke-linecap:round;stroke-linejoin:round;stroke-miterlimit:10;" x1="437.336" y1="268.474" x2="455.945" y2="268.474"/>
				
					<line style="fill:none;stroke:#E0E0E2;stroke-width:2.0008;stroke-linecap:round;stroke-linejoin:round;stroke-miterlimit:10;" x1="438.993" y1="273.913" x2="457.602" y2="273.913"/>
				
					<line style="fill:none;stroke:#E0E0E2;stroke-width:2.0008;stroke-linecap:round;stroke-linejoin:round;stroke-miterlimit:10;" x1="490.484" y1="161.966" x2="509.093" y2="161.966"/>
				
					<line style="fill:none;stroke:#E0E0E2;stroke-width:2.0008;stroke-linecap:round;stroke-linejoin:round;stroke-miterlimit:10;" x1="391.14" y1="152.665" x2="409.749" y2="152.665"/>
				
					<line style="fill:none;stroke:#E0E0E2;stroke-width:2.0008;stroke-linecap:round;stroke-linejoin:round;stroke-miterlimit:10;" x1="388.5" y1="157.315" x2="407.109" y2="157.315"/>
				
					<line style="fill:none;stroke:#E0E0E2;stroke-width:2.0008;stroke-linecap:round;stroke-linejoin:round;stroke-miterlimit:10;" x1="482.906" y1="165.952" x2="501.515" y2="165.952"/>
				
					<line style="fill:none;stroke:#E0E0E2;stroke-width:2.0008;stroke-linecap:round;stroke-linejoin:round;stroke-miterlimit:10;" x1="341.512" y1="244.011" x2="360.121" y2="244.011"/>
			</g>
			<g>
				
					<text transform="matrix(1 0 0 1 246.2157 200.7539)" style="fill:#E0E0E2; font-family:'Bungee-Regular'; font-size:118.7782px; letter-spacing:-2;">WEB</text>
			</g>
			
				<text transform="matrix(1 0 0 1 247.6102 283.2271)" style="fill:#E0E0E2; font-family:'Bungee-Regular'; font-size:101.6427px; letter-spacing:-2;">SITE</text>
			<g>
				<g>
					<path style="fill:#FFCA58;stroke:#323139;stroke-width:2.0008;stroke-miterlimit:10;" d="M242.127,246.174l-14.899,37.351
						h34.244l-14.899-37.351C245.772,244.165,242.928,244.165,242.127,246.174z"/>
					<polygon style="opacity:0.23;fill:#323139;stroke:#323139;stroke-width:2.0008;stroke-miterlimit:10;" points="
						228.999,279.086 227.228,283.525 261.473,283.525 259.702,279.086 					"/>
					
						<line style="fill:none;stroke:#FFEAA6;stroke-width:2.0008;stroke-linecap:round;stroke-linejoin:round;stroke-miterlimit:10;" x1="245.09" y1="250.261" x2="256.367" y2="277.974"/>
					<path style="fill:#FFA166;stroke:#323139;stroke-width:2.0008;stroke-miterlimit:10;" d="M263.946,286.132h-39.19
						c-1.1,0-1.999-0.9-1.999-1.999l0,0c0-1.1,0.9-1.999,1.999-1.999h39.19c1.1,0,1.999,0.9,1.999,1.999l0,0
						C265.945,285.232,265.045,286.132,263.946,286.132z"/>
					<path style="opacity:0.23;fill:#323139;" d="M263.946,284.133h-39.19c-0.734,0-1.372-0.406-1.72-1
						c-0.173,0.296-0.279,0.634-0.279,1c0,1.1,0.9,1.999,1.999,1.999h39.19c1.1,0,1.999-0.9,1.999-1.999c0-0.365-0.107-0.704-0.28-1
						C265.318,283.727,264.68,284.133,263.946,284.133z"/>
					<polygon style="fill:#323139;stroke:#323139;stroke-width:2.0008;stroke-miterlimit:10;" points="231.356,273.175 
						257.344,273.175 252.846,261.898 235.855,261.898 					"/>
					
						<line style="fill:none;stroke:#76757B;stroke-width:2.0008;stroke-linecap:round;stroke-linejoin:round;stroke-miterlimit:10;" x1="250.365" y1="263.226" x2="253.791" y2="271.644"/>
				</g>
				<g>
					<g>
						<g>
							
								<rect x="361.115" y="266.811" style="fill:#FFFFFF;stroke:#323139;stroke-width:2.0008;stroke-linecap:round;stroke-linejoin:round;stroke-miterlimit:10;" width="2.815" height="22.226"/>
							
								<rect x="361.115" y="266.811" style="opacity:0.57;fill:#323139;stroke:#323139;stroke-width:2.0008;stroke-miterlimit:10;" width="2.815" height="6.781"/>
							
								<line style="fill:none;stroke:#323139;stroke-width:2.0008;stroke-linecap:round;stroke-linejoin:round;stroke-miterlimit:10;" x1="358.986" y1="289.037" x2="366.06" y2="289.037"/>
						</g>
						<g>
							
								<rect x="401.068" y="266.811" style="fill:#FFFFFF;stroke:#323139;stroke-width:2.0008;stroke-linecap:round;stroke-linejoin:round;stroke-miterlimit:10;" width="2.815" height="22.226"/>
							
								<rect x="401.068" y="266.811" style="opacity:0.57;fill:#323139;stroke:#323139;stroke-width:2.0008;stroke-miterlimit:10;" width="2.815" height="6.781"/>
							
								<line style="fill:none;stroke:#323139;stroke-width:2.0008;stroke-linecap:round;stroke-linejoin:round;stroke-miterlimit:10;" x1="398.938" y1="289.037" x2="406.012" y2="289.037"/>
						</g>
					</g>
					<path style="fill:#FFA166;stroke:#323139;stroke-width:2.0008;stroke-miterlimit:10;" d="M414.365,267.676h-63.732
						c-1.012,0-1.833-0.82-1.833-1.832v-11.142c0-1.012,0.82-1.832,1.833-1.832h63.732c1.012,0,1.832,0.82,1.832,1.832v11.142
						C416.197,266.856,415.377,267.676,414.365,267.676z"/>
					<path style="opacity:0.23;fill:#323139;stroke:#323139;stroke-width:2.0008;stroke-miterlimit:10;" d="M414.365,260.273
						h-63.732c-1.012,0-1.833-0.82-1.833-1.832v7.403c0,1.012,0.821,1.832,1.833,1.832h63.732c1.012,0,1.832-0.82,1.832-1.832
						v-7.403C416.197,259.453,415.377,260.273,414.365,260.273z"/>
					<g>
						<polygon style="fill:#323139;stroke:#323139;stroke-width:2.0008;stroke-miterlimit:10;" points="352.158,267.676 
							356.225,267.676 361.229,252.87 357.163,252.87 						"/>
						<polygon style="fill:#323139;stroke:#323139;stroke-width:2.0008;stroke-miterlimit:10;" points="362.48,267.676 
							366.547,267.676 371.551,252.87 367.485,252.87 						"/>
						<polygon style="fill:#323139;stroke:#323139;stroke-width:2.0008;stroke-miterlimit:10;" points="372.802,267.676 
							376.869,267.676 381.873,252.87 377.807,252.87 						"/>
						<polygon style="fill:#323139;stroke:#323139;stroke-width:2.0008;stroke-miterlimit:10;" points="383.125,267.676 
							387.191,267.676 392.196,252.87 388.129,252.87 						"/>
						<polygon style="fill:#323139;stroke:#323139;stroke-width:2.0008;stroke-miterlimit:10;" points="393.447,267.676 
							397.513,267.676 402.518,252.87 398.451,252.87 						"/>
						<polygon style="fill:#323139;stroke:#323139;stroke-width:2.0008;stroke-miterlimit:10;" points="403.769,267.676 
							407.835,267.676 412.84,252.87 408.773,252.87 						"/>
					</g>
					
						<line style="opacity:0.42;fill:none;stroke:#FFEAA6;stroke-width:2.0008;stroke-linecap:round;stroke-linejoin:round;stroke-miterlimit:10;" x1="353.1" y1="255.529" x2="411.898" y2="255.529"/>
				</g>
				<g>
					<path style="fill:#FFCA58;stroke:#323139;stroke-width:2.0008;stroke-miterlimit:10;" d="M263.721,252.419l-14.899,37.351
						h34.244l-14.899-37.351C267.367,250.41,264.523,250.41,263.721,252.419z"/>
					<polygon style="opacity:0.23;fill:#323139;stroke:#323139;stroke-width:2.0008;stroke-miterlimit:10;" points="
						250.593,285.331 248.822,289.769 283.067,289.769 281.296,285.331 					"/>
					
						<line style="fill:none;stroke:#FFEAA6;stroke-width:2.0008;stroke-linecap:round;stroke-linejoin:round;stroke-miterlimit:10;" x1="266.684" y1="256.506" x2="277.961" y2="284.219"/>
					<path style="fill:#FFA166;stroke:#323139;stroke-width:2.0008;stroke-miterlimit:10;" d="M285.54,292.377h-39.19
						c-1.1,0-1.999-0.9-1.999-1.999l0,0c0-1.099,0.9-1.999,1.999-1.999h39.19c1.1,0,1.999,0.9,1.999,1.999l0,0
						C287.539,291.477,286.639,292.377,285.54,292.377z"/>
					<path style="opacity:0.23;fill:#323139;" d="M285.54,290.377h-39.19c-0.734,0-1.372-0.406-1.72-1
						c-0.173,0.296-0.279,0.634-0.279,1c0,1.1,0.9,1.999,1.999,1.999h39.19c1.1,0,1.999-0.9,1.999-1.999
						c0-0.365-0.106-0.704-0.279-1C286.912,289.972,286.274,290.377,285.54,290.377z"/>
					<polygon style="fill:#323139;stroke:#323139;stroke-width:2.0008;stroke-miterlimit:10;" points="252.951,279.42 
						278.939,279.42 274.44,268.143 257.449,268.143 					"/>
					
						<line style="fill:none;stroke:#76757B;stroke-width:2.0008;stroke-linecap:round;stroke-linejoin:round;stroke-miterlimit:10;" x1="271.96" y1="269.47" x2="275.385" y2="277.889"/>
				</g>
				
					<line style="fill:none;stroke:#323139;stroke-width:2.0008;stroke-linecap:round;stroke-linejoin:round;stroke-miterlimit:10;" x1="448.298" y1="286.522" x2="471.549" y2="286.522"/>
				
					<line style="fill:none;stroke:#323139;stroke-width:2.0008;stroke-linecap:round;stroke-linejoin:round;stroke-miterlimit:10;" x1="462.913" y1="290.325" x2="468.237" y2="290.325"/>
				
					<line style="fill:none;stroke:#323139;stroke-width:2.0008;stroke-linecap:round;stroke-linejoin:round;stroke-miterlimit:10;" x1="361.115" y1="293.459" x2="363.93" y2="293.459"/>
				
					<line style="fill:none;stroke:#323139;stroke-width:2.0008;stroke-linecap:round;stroke-linejoin:round;stroke-miterlimit:10;" x1="337.022" y1="287.39" x2="351.949" y2="287.39"/>
				
					<line style="fill:none;stroke:#323139;stroke-width:2.0008;stroke-linecap:round;stroke-linejoin:round;stroke-miterlimit:10;" x1="411.898" y1="284.897" x2="420.911" y2="284.897"/>
				
					<line style="fill:none;stroke:#323139;stroke-width:2.0008;stroke-linecap:round;stroke-linejoin:round;stroke-miterlimit:10;" x1="329.715" y1="287.39" x2="324.4" y2="287.39"/>
				
					<line style="fill:none;stroke:#323139;stroke-width:2.0008;stroke-linecap:round;stroke-linejoin:round;stroke-miterlimit:10;" x1="257.344" y1="297.38" x2="278.939" y2="297.38"/>
				
					<line style="fill:none;stroke:#323139;stroke-width:2.0008;stroke-linecap:round;stroke-linejoin:round;stroke-miterlimit:10;" x1="228.01" y1="292.377" x2="233.027" y2="292.377"/>
				
					<line style="fill:none;stroke:#323139;stroke-width:2.0008;stroke-linecap:round;stroke-linejoin:round;stroke-miterlimit:10;" x1="231.872" y1="235.636" x2="249.848" y2="235.636"/>
				
					<line style="fill:none;stroke:#323139;stroke-width:2.0008;stroke-linecap:round;stroke-linejoin:round;stroke-miterlimit:10;" x1="324.4" y1="257.896" x2="342.005" y2="257.896"/>
				
					<line style="fill:none;stroke:#323139;stroke-width:2.0008;stroke-linecap:round;stroke-linejoin:round;stroke-miterlimit:10;" x1="327.057" y1="251.318" x2="333.202" y2="251.318"/>
				
					<line style="fill:none;stroke:#323139;stroke-width:2.0008;stroke-linecap:round;stroke-linejoin:round;stroke-miterlimit:10;" x1="427.288" y1="246.033" x2="408.304" y2="246.033"/>
				
					<line style="fill:none;stroke:#323139;stroke-width:2.0008;stroke-linecap:round;stroke-linejoin:round;stroke-miterlimit:10;" x1="427.288" y1="240.719" x2="417.796" y2="240.719"/>
				
					<line style="fill:none;stroke:#323139;stroke-width:2.0008;stroke-linecap:round;stroke-linejoin:round;stroke-miterlimit:10;" x1="437.336" y1="236.039" x2="448.298" y2="236.039"/>
				
					<line style="fill:none;stroke:#323139;stroke-width:2.0008;stroke-linecap:round;stroke-linejoin:round;stroke-miterlimit:10;" x1="439.661" y1="241.686" x2="444.976" y2="241.686"/>
				
					<line style="fill:none;stroke:#323139;stroke-width:2.0008;stroke-linecap:round;stroke-linejoin:round;stroke-miterlimit:10;" x1="419.399" y1="173.592" x2="444.976" y2="173.592"/>
				
					<line style="fill:none;stroke:#323139;stroke-width:2.0008;stroke-linecap:round;stroke-linejoin:round;stroke-miterlimit:10;" x1="422.389" y1="178.242" x2="432.188" y2="178.242"/>
				
					<line style="fill:none;stroke:#323139;stroke-width:2.0008;stroke-linecap:round;stroke-linejoin:round;stroke-miterlimit:10;" x1="344.486" y1="151.337" x2="358.35" y2="151.337"/>
				
					<line style="fill:none;stroke:#323139;stroke-width:2.0008;stroke-linecap:round;stroke-linejoin:round;stroke-miterlimit:10;" x1="348.801" y1="157.315" x2="352.832" y2="157.315"/>
				
					<line style="fill:none;stroke:#323139;stroke-width:2.0008;stroke-linecap:round;stroke-linejoin:round;stroke-miterlimit:10;" x1="306.463" y1="131.074" x2="319.085" y2="131.074"/>
				
					<line style="fill:none;stroke:#323139;stroke-width:2.0008;stroke-linecap:round;stroke-linejoin:round;stroke-miterlimit:10;" x1="309.785" y1="137.053" x2="312.774" y2="137.053"/>
				
					<line style="fill:none;stroke:#323139;stroke-width:2.0008;stroke-linecap:round;stroke-linejoin:round;stroke-miterlimit:10;" x1="243.066" y1="160.637" x2="259.989" y2="160.637"/>
				
					<line style="fill:none;stroke:#323139;stroke-width:2.0008;stroke-linecap:round;stroke-linejoin:round;stroke-miterlimit:10;" x1="247.61" y1="165.952" x2="254.977" y2="165.952"/>
				
					<line style="fill:none;stroke:#323139;stroke-width:2.0008;stroke-linecap:round;stroke-linejoin:round;stroke-miterlimit:10;" x1="497.462" y1="132.735" x2="483.507" y2="132.735"/>
				
					<line style="fill:none;stroke:#323139;stroke-width:2.0008;stroke-linecap:round;stroke-linejoin:round;stroke-miterlimit:10;" x1="495.2" y1="137.053" x2="487.734" y2="137.053"/>
				
					<line style="fill:none;stroke:#323139;stroke-width:2.0008;stroke-linecap:round;stroke-linejoin:round;stroke-miterlimit:10;" x1="401.068" y1="293.459" x2="403.883" y2="293.459"/>
				
					<line style="fill:none;stroke:#323139;stroke-width:2.0008;stroke-linecap:round;stroke-linejoin:round;stroke-miterlimit:10;" x1="242.143" y1="229.279" x2="259.844" y2="229.279"/>
				
					<line style="fill:none;stroke:#323139;stroke-width:2.0008;stroke-linecap:round;stroke-linejoin:round;stroke-miterlimit:10;" x1="476.499" y1="249.212" x2="494.474" y2="249.212"/>
				
					<line style="fill:none;stroke:#323139;stroke-width:2.0008;stroke-linecap:round;stroke-linejoin:round;stroke-miterlimit:10;" x1="483.45" y1="244.585" x2="501.151" y2="244.585"/>
			</g>
			<g>
				<g>
					
						<rect x="504.324" y="212.717" style="fill:#FFFFFF;stroke:#323139;stroke-width:2.0008;stroke-linecap:round;stroke-linejoin:round;stroke-miterlimit:10;" width="3.325" height="75.25"/>
					
						<rect x="504.324" y="212.717" style="opacity:0.57;fill:#323139;stroke:#323139;stroke-width:2.0008;stroke-miterlimit:10;" width="3.325" height="8.01"/>
					
						<line style="fill:none;stroke:#323139;stroke-width:2.0008;stroke-linecap:round;stroke-linejoin:round;stroke-miterlimit:10;" x1="501.809" y1="287.967" x2="510.165" y2="287.967"/>
				</g>
				<g>
					<g>
						<path style="fill:#FFA166;stroke:#323139;stroke-width:2.0008;stroke-miterlimit:10;" d="M532.201,191.63l-20.972,20.972
							c-2.895,2.895-7.588,2.895-10.483,0l-20.972-20.972c-2.895-2.895-2.895-7.588,0-10.483l20.972-20.972
							c2.895-2.895,7.588-2.895,10.483,0l20.972,20.972C535.096,184.041,535.096,188.735,532.201,191.63z"/>
					</g>
					<g>
						<g>
							<path style="fill:#FFA166;" d="M526.043,190.398l-16.046,16.046c-2.215,2.215-5.806,2.215-8.02,0l-16.046-16.046
								c-2.215-2.215-2.215-5.806,0-8.02l16.046-16.046c2.215-2.215,5.806-2.215,8.02,0l16.046,16.046
								C528.258,184.592,528.258,188.183,526.043,190.398z"/>
							
								<path style="fill:none;stroke:#323139;stroke-width:2.0007;stroke-linecap:round;stroke-linejoin:round;stroke-dasharray:4.5945,3.8287;" d="
								M526.043,190.398l-16.046,16.046c-2.215,2.215-5.806,2.215-8.02,0l-16.046-16.046c-2.215-2.215-2.215-5.806,0-8.02
								l16.046-16.046c2.215-2.215,5.806-2.215,8.02,0l16.046,16.046C528.258,184.592,528.258,188.183,526.043,190.398z"/>
						</g>
					</g>
					<path style="opacity:0.23;fill:#323139;stroke:#323139;stroke-width:2.0008;stroke-miterlimit:10;" d="M532.201,181.931
						l-20.972,20.972c-2.895,2.895-7.588,2.895-10.483,0l-20.972-20.972c-0.122-0.122-0.209-0.264-0.321-0.392
						c-2.539,2.912-2.452,7.318,0.321,10.091l20.972,20.972c2.895,2.895,7.588,2.895,10.483,0l20.972-20.972
						c2.773-2.773,2.86-7.179,0.321-10.091C532.41,181.667,532.323,181.809,532.201,181.931z"/>
					
						<text transform="matrix(1 0 0 1 500.2938 196.2393)" style="fill:#323139; font-family:'Bungee-Regular'; font-size:27.5073px;">!</text>
				</g>
			</g>
			<g>
				<path style="fill:#FFCA58;stroke:#323139;stroke-width:2.0307;stroke-miterlimit:10;" d="M384.578,112.625
					c-2.539-9.618-12.325-15.459-22.018-13.066c-9.693,2.393-15.636,12.117-13.408,21.812L384.578,112.625z"/>
				
					<path style="fill:#FFCA58;stroke:#323139;stroke-width:2.0307;stroke-linecap:round;stroke-linejoin:round;stroke-miterlimit:10;" d="
					M360.962,115.919l-4.076-12.496c-0.583-2.362,0.872-4.771,3.234-5.354l3.906-0.964c2.362-0.583,4.771,0.872,5.354,3.234
					l2.208,12.958"/>
				<path style="opacity:0.23;fill:#323139;" d="M349.161,113.227c-0.595,2.604-0.646,5.372-0.009,8.143l35.426-8.745
					c-0.726-2.749-2.059-5.176-3.797-7.204L349.161,113.227z"/>
				<path style="fill:#FFA166;stroke:#323139;stroke-width:2.0307;stroke-miterlimit:10;" d="M385.773,115.199l-36.481,9.006
					c-1.488,0.367-3.005-0.549-3.372-2.037l0,0c-0.367-1.488,0.549-3.005,2.037-3.372l36.481-9.006
					c1.488-0.367,3.005,0.549,3.372,2.037l0,0C388.178,113.315,387.261,114.832,385.773,115.199z"/>
				<path style="opacity:0.23;fill:#323139;" d="M385.028,112.18l-36.481,9.006c-0.93,0.229-1.871-0.042-2.536-0.642
					c-0.186,0.504-0.229,1.066-0.091,1.624c0.367,1.488,1.885,2.404,3.372,2.037l36.481-9.006c1.488-0.367,2.404-1.885,2.037-3.372
					c-0.138-0.558-0.437-1.035-0.836-1.395C386.664,111.272,385.958,111.951,385.028,112.18z"/>
			</g>
		</g>
		
			<line style="fill:none;stroke:#323139;stroke-width:1.7897;stroke-linecap:round;stroke-linejoin:round;stroke-miterlimit:10;" x1="244.987" y1="307.496" x2="505.013" y2="307.496"/>
		<g>
			<text transform="matrix(1 0 0 1 251.9747 337.19)"><tspan x="0" y="0" style="fill:#E0E0E2; font-family:'AntipastoPro-DemiBold'; font-size:23px;">UNDER</tspan><tspan x="73.622" y="0" style="fill:#323139; font-family:'AntipastoPro-DemiBold'; font-size:23px;"> </tspan><tspan x="79.417" y="0" style="fill:#FFA166; font-family:'AntipastoPro-DemiBold'; font-size:23px;">CONSTRUCTION</tspan></text>
			<g>
				<rect x="167.64" y="346.424" style="fill:none;" width="414.72" height="25.744"/>
				
					<text transform="matrix(1 0 0 1 247.5404 354.8365)" style="fill:#E0E0E2; font-family:'Antipasto'; font-size:11.8491px; letter-spacing:1;">Lorem ipsum dolor sit amet, consectetuer.</text>
			</g>
		</g>
		<g>
			<path style="fill:#FFCA58;" d="M409.473,397.927h-68.946c-7.491,0-13.619-6.129-13.619-13.619l0,0
				c0-7.491,6.129-13.619,13.619-13.619h68.946c7.491,0,13.619,6.129,13.619,13.619l0,0
				C423.092,391.798,416.964,397.927,409.473,397.927z"/>
			
				<text transform="matrix(1 0 0 1 342.1082 388.5699)" style="fill:#323139; font-family:'AntipastoPro-DemiBold'; font-size:11.8444px;">CONTACT US</text>
		</g>
		<path style="opacity:0.3;fill:#323139;" d="M642.142,68.098c0,3.658-2.965,6.623-6.623,6.623c-3.658,0-6.623-2.965-6.623-6.623
			c0-3.658,2.965-6.623,6.623-6.623C639.177,61.475,642.142,64.44,642.142,68.098z"/>
		<path style="opacity:0.3;fill:#323139;" d="M626.155,68.098c0,3.658-2.965,6.623-6.623,6.623c-3.658,0-6.623-2.965-6.623-6.623
			c0-3.658,2.965-6.623,6.623-6.623C623.189,61.475,626.155,64.44,626.155,68.098z"/>
		<path style="opacity:0.3;fill:#323139;" d="M610.167,68.098c0,3.658-2.965,6.623-6.623,6.623s-6.623-2.965-6.623-6.623
			c0-3.658,2.965-6.623,6.623-6.623S610.167,64.44,610.167,68.098z"/>
	</g>
</g>
<g id="DESIGNED_BY_FREEPIK">
	<g>
		<g id="XMLID_319_">
			<g id="XMLID_338_">
				<path id="XMLID_346_" style="fill:#FFFFFF;" d="M385.104,465.465c-0.433,0.443-0.804,0.932-1.108,1.453l-0.465-0.241
					c-0.067-0.297-0.35-0.502-0.659-0.466c-0.331,0.039-0.567,0.339-0.529,0.67c0.039,0.331,0.339,0.567,0.67,0.528
					c0.066-0.007,0.127-0.025,0.184-0.052l0.451,0.234c-0.251,0.554-0.433,1.139-0.539,1.743l0.747,0.132
					c0.229-1.306,0.85-2.507,1.792-3.473L385.104,465.465z"/>
				<path id="XMLID_345_" style="fill:#FFFFFF;" d="M390.592,463.164c-0.171,0-0.341,0.006-0.509,0.017l-0.074-0.626
					c0.188-0.149,0.296-0.389,0.266-0.645c-0.046-0.393-0.402-0.674-0.795-0.628c-0.393,0.046-0.675,0.402-0.628,0.796
					c0.03,0.254,0.19,0.461,0.404,0.563l0.073,0.624c-0.714,0.116-1.402,0.332-2.06,0.646l0.327,0.685
					c0.935-0.447,1.941-0.674,2.995-0.674c0.497,0,0.993,0.053,1.476,0.158l0.16-0.741
					C391.692,463.222,391.142,463.164,390.592,463.164z"/>
				<path id="XMLID_344_" style="fill:#FFFFFF;" d="M397.194,465.711c0.331-0.04,0.566-0.341,0.525-0.672
					c-0.04-0.331-0.341-0.566-0.672-0.525c-0.31,0.038-0.535,0.304-0.53,0.608l-0.416,0.363c-0.418-0.43-0.89-0.813-1.407-1.14
					l-0.404,0.642c1.135,0.715,2.021,1.727,2.564,2.925l0.69-0.313c-0.251-0.554-0.567-1.071-0.942-1.545l0.402-0.351
					C397.065,465.715,397.129,465.719,397.194,465.711z"/>
				<path id="XMLID_343_" style="fill:#FFFFFF;" d="M390.045,473.372c-0.386,0.023-0.775,0.035-1.157,0.035
					c-0.88,0-1.733-0.061-2.478-0.18c-0.391-0.062-0.846-0.154-1.271-0.292c1.047,1.861,3.069,3.125,5.389,3.125
					c2.855,0,5.263-1.916,5.949-4.503c-0.682,0.449-1.505,0.825-2.458,1.122C392.839,473.047,391.464,473.287,390.045,473.372z"/>
				<path id="XMLID_339_" style="fill:#FFFFFF;" d="M390.592,464.68c-3.352,0-6.079,2.666-6.079,5.943
					c0,0.425,0.046,0.849,0.137,1.261c0.674,0.483,2.706,0.891,5.348,0.731c2.88-0.174,5.297-0.958,6.672-2.159
					c-0.005-0.194-0.021-0.39-0.045-0.581C396.244,466.914,393.65,464.68,390.592,464.68z M388.432,471.195
					c-1.02,0-1.85-0.83-1.85-1.85c0-1.021,0.83-1.851,1.85-1.851c1.02,0,1.85,0.83,1.85,1.851
					C390.282,470.365,389.452,471.195,388.432,471.195z M393.17,470.287c-0.75,0-1.36-0.61-1.36-1.36s0.61-1.36,1.36-1.36
					s1.36,0.61,1.36,1.36S393.92,470.287,393.17,470.287z"/>
			</g>
			<path id="XMLID_336_" style="fill:#FFFFFF;" d="M406.596,466.547c-0.295-0.116-0.806-0.31-1.383-0.238
				c-0.551,0.069-0.844,0.341-0.844,1.007v0.866h2.229v1.717h-2.229v5.455h-1.932v-5.455h-1.339v-1.717h1.339v-0.889
				c0-1.68,0.896-2.782,2.568-2.782c0.643,0,1.157,0.121,1.59,0.308V466.547z"/>
			<path id="XMLID_334_" style="fill:#FFFFFF;" d="M411.298,469.878c-0.177-0.029-0.357-0.046-0.525-0.046
				c-0.895,0-1.51,0.548-1.51,1.613v3.908h-1.933v-7.172h1.873v0.784c0.451-0.673,1.14-0.977,2.02-0.977
				c0.414,0,0.848,0.128,1.095,0.337L411.298,469.878z"/>
			<path id="XMLID_331_" style="fill:#FFFFFF;" d="M418.966,471.757c0,0.222-0.016,0.488-0.037,0.651h-5.085
				c0.207,1.036,0.933,1.487,1.843,1.487c0.622,0,1.295-0.252,1.813-0.689l1.133,1.243c-0.814,0.748-1.851,1.089-3.057,1.089
				c-2.198,0-3.724-1.496-3.724-3.753c0-2.258,1.48-3.797,3.627-3.797C417.544,467.99,418.958,469.522,418.966,471.757z
				 M413.851,471.091h3.175c-0.178-0.918-0.732-1.437-1.562-1.437C414.555,469.655,414.021,470.203,413.851,471.091z"/>
			<path id="XMLID_328_" style="fill:#FFFFFF;" d="M426.619,471.757c0,0.222-0.016,0.488-0.037,0.651h-5.085
				c0.207,1.036,0.933,1.487,1.843,1.487c0.622,0,1.296-0.252,1.814-0.689l1.133,1.243c-0.814,0.748-1.851,1.089-3.058,1.089
				c-2.198,0-3.723-1.496-3.723-3.753c0-2.258,1.481-3.797,3.627-3.797C425.197,467.99,426.611,469.522,426.619,471.757z
				 M421.505,471.091h3.175c-0.178-0.918-0.733-1.437-1.562-1.437C422.208,469.655,421.675,470.203,421.505,471.091z"/>
			<path id="XMLID_325_" style="fill:#FFFFFF;" d="M434.965,471.764c0,2.154-1.495,3.775-3.472,3.775
				c-0.962,0-1.643-0.378-2.109-0.933v3.708h-1.925v-10.133h1.888v0.792c0.467-0.585,1.154-0.984,2.139-0.984
				C433.47,467.99,434.965,469.611,434.965,471.764z M429.287,471.764c0,1.133,0.748,1.977,1.844,1.977
				c1.14,0,1.85-0.881,1.85-1.977c0-1.095-0.71-1.976-1.85-1.976C430.035,469.789,429.287,470.632,429.287,471.764z"/>
			<path id="XMLID_322_" style="fill:#FFFFFF;" d="M438.068,465.836c0,0.696-0.541,1.229-1.236,1.229
				c-0.696,0-1.228-0.533-1.228-1.229c0-0.695,0.532-1.243,1.228-1.243C437.527,464.592,438.068,465.14,438.068,465.836z
				 M437.808,475.354h-1.932v-7.172h1.932V475.354z"/>
			<path id="XMLID_320_" style="fill:#FFFFFF;" d="M441.032,470.736l2.702-2.554h2.368l-3.478,3.375l3.501,3.797h-2.376
				l-2.717-2.901v2.901H439.1v-10.658h1.932V470.736z"/>
		</g>
		<g>
			<path style="fill:#FFFFFF;" d="M309.412,475.29v-1.055c-0.527,0.718-1.391,1.23-2.387,1.23c-1.846,0-3.149-1.406-3.149-3.706
				c0-2.256,1.289-3.721,3.149-3.721c0.952,0,1.816,0.469,2.387,1.245v-3.765h1.099v9.771H309.412z M309.412,473.371v-3.208
				c-0.395-0.615-1.245-1.143-2.124-1.143c-1.42,0-2.27,1.172-2.27,2.739c0,1.567,0.85,2.725,2.27,2.725
				C308.168,474.484,309.017,473.986,309.412,473.371z"/>
			<path style="fill:#FFFFFF;" d="M311.932,471.745c0-2.051,1.465-3.706,3.486-3.706c2.139,0,3.398,1.67,3.398,3.794v0.278h-5.727
				c0.088,1.333,1.025,2.446,2.549,2.446c0.806,0,1.626-0.322,2.182-0.894l0.527,0.718c-0.703,0.703-1.655,1.084-2.812,1.084
				C313.441,475.465,311.932,473.957,311.932,471.745z M315.404,468.947c-1.509,0-2.256,1.274-2.314,2.358h4.644
				C317.718,470.25,317.015,468.947,315.404,468.947z"/>
			<path style="fill:#FFFFFF;" d="M319.607,474.352l0.571-0.791c0.469,0.542,1.362,1.011,2.329,1.011c1.084,0,1.67-0.513,1.67-1.216
				c0-1.714-4.38-0.659-4.38-3.281c0-1.099,0.952-2.036,2.636-2.036c1.202,0,2.051,0.454,2.623,1.025l-0.513,0.762
				c-0.424-0.513-1.201-0.894-2.109-0.894c-0.966,0-1.567,0.483-1.567,1.113c0,1.553,4.379,0.527,4.379,3.281
				c0,1.187-0.952,2.139-2.783,2.139C321.306,475.465,320.325,475.114,319.607,474.352z"/>
			<path style="fill:#FFFFFF;" d="M326.477,466.471c0-0.41,0.337-0.747,0.732-0.747c0.41,0,0.747,0.337,0.747,0.747
				c0,0.41-0.337,0.732-0.747,0.732C326.814,467.204,326.477,466.881,326.477,466.471z M326.667,475.29v-7.075h1.099v7.075H326.667z
				"/>
			<path style="fill:#FFFFFF;" d="M329.582,477.106l0.556-0.82c0.586,0.703,1.289,0.967,2.3,0.967c1.172,0,2.271-0.571,2.271-2.124
				v-1.011c-0.513,0.718-1.377,1.26-2.373,1.26c-1.846,0-3.149-1.377-3.149-3.662c0-2.271,1.289-3.677,3.149-3.677
				c0.952,0,1.802,0.469,2.373,1.245v-1.069h1.099v6.87c0,2.344-1.641,3.076-3.369,3.076
				C331.237,478.161,330.417,477.925,329.582,477.106z M334.709,473.253v-3.091c-0.381-0.615-1.23-1.143-2.109-1.143
				c-1.421,0-2.27,1.128-2.27,2.695c0,1.553,0.849,2.695,2.27,2.695C333.478,474.411,334.328,473.869,334.709,473.253z"/>
			<path style="fill:#FFFFFF;" d="M342.413,475.29v-4.629c0-1.245-0.63-1.641-1.582-1.641c-0.864,0-1.685,0.527-2.094,1.099v5.171
				h-1.099v-7.075h1.099v1.025c0.497-0.586,1.464-1.201,2.519-1.201c1.479,0,2.256,0.747,2.256,2.285v4.966H342.413z"/>
			<path style="fill:#FFFFFF;" d="M344.932,471.745c0-2.051,1.465-3.706,3.486-3.706c2.139,0,3.398,1.67,3.398,3.794v0.278h-5.727
				c0.088,1.333,1.025,2.446,2.548,2.446c0.806,0,1.626-0.322,2.183-0.894l0.527,0.718c-0.703,0.703-1.655,1.084-2.813,1.084
				C346.442,475.465,344.932,473.957,344.932,471.745z M348.404,468.947c-1.509,0-2.256,1.274-2.314,2.358h4.643
				C350.719,470.25,350.016,468.947,348.404,468.947z"/>
			<path style="fill:#FFFFFF;" d="M358.35,475.29v-1.055c-0.527,0.718-1.392,1.23-2.388,1.23c-1.845,0-3.149-1.406-3.149-3.706
				c0-2.256,1.289-3.721,3.149-3.721c0.952,0,1.817,0.469,2.388,1.245v-3.765h1.098v9.771H358.35z M358.35,473.371v-3.208
				c-0.396-0.615-1.245-1.143-2.124-1.143c-1.421,0-2.27,1.172-2.27,2.739c0,1.567,0.85,2.725,2.27,2.725
				C357.105,474.484,357.954,473.986,358.35,473.371z"/>
			<path style="fill:#FFFFFF;" d="M364.692,475.29v-9.771h1.099v3.765c0.571-0.776,1.421-1.245,2.388-1.245
				c1.845,0,3.149,1.465,3.149,3.721c0,2.3-1.304,3.706-3.149,3.706c-0.996,0-1.86-0.513-2.388-1.23v1.055H364.692z M367.9,474.484
				c1.436,0,2.285-1.157,2.285-2.725c0-1.567-0.85-2.739-2.285-2.739c-0.864,0-1.729,0.527-2.109,1.143v3.208
				C366.172,473.986,367.036,474.484,367.9,474.484z"/>
			<path style="fill:#FFFFFF;" d="M372.529,477.062c0.161,0.073,0.425,0.117,0.601,0.117c0.483,0,0.806-0.161,1.055-0.747
				l0.469-1.069l-2.959-7.148h1.186l2.358,5.801l2.344-5.801h1.2l-3.544,8.511c-0.425,1.024-1.143,1.421-2.08,1.436
				c-0.234,0-0.6-0.044-0.806-0.104L372.529,477.062z"/>
		</g>
	</g>
</g>
</svg>
